<svg id="tongue" enable-background="new 0 0 300 300" height="512" viewBox="0 0 300 300" width="512" xmlns="http://www.w3.org/2000/svg"><g><circle cx="48.477" cy="72" r="4"/><circle cx="140.477" cy="56" r="4"/><path d="m78.373 58.621c.781.781 1.805 1.172 2.828 1.172s2.047-.391 2.828-1.172l3.068-3.068 3.068 3.068c.781.781 1.805 1.172 2.828 1.172s2.047-.391 2.828-1.172c1.562-1.562 1.562-4.094 0-5.656l-3.068-3.068 3.068-3.068c1.562-1.562 1.562-4.094 0-5.656s-4.094-1.562-5.656 0l-3.068 3.068-3.068-3.068c-1.562-1.562-4.094-1.562-5.656 0s-1.562 4.094 0 5.656l3.068 3.068-3.068 3.068c-1.562 1.562-1.562 4.094 0 5.656z"/><path d="m252.356 114.348c-6.627-5.869-18.809-17.127-25.91-26.594-11.334-15.111-31.225-20.295-44.342-11.543-3.93 2.619-10.303 5.16-18.426 7.346-7.326 1.973-15.072 1.973-22.402 0-8.123-2.186-14.496-4.727-18.426-7.346-13.121-8.746-33.012-3.568-44.342 11.543-7.102 9.467-19.283 20.725-25.912 26.594-2.213 1.961-3.357 4.775-3.139 7.723.219 2.963 1.777 5.592 4.275 7.217l34.744 22.582v45.594c0 35.219 34.404 62.537 64 62.537 34.691 0 64-28.639 64-62.537 0-2.209-1.791-4-4-4s-4 1.791-4 4c0 29.562-25.645 54.537-56 54.537-25.365 0-56-24.326-56-54.537v-66.244c0-15.008 12.561-27.219 28-27.219 9.868 0 18.956 5.193 24 13.567v46.432c0 2.209 1.791 4 4 4s4-1.791 4-4v-46.433c5.044-8.375 14.132-13.567 24-13.567 15.439 0 28 12.211 28 27.219v39.025c0 2.209 1.791 4 4 4s4-1.791 4-4v-18.374l34.746-22.583c2.496-1.625 4.055-4.254 4.273-7.217.22-2.947-.924-5.761-3.139-7.722zm-5.494 8.232-30.385 19.749v-11.111c0-19.42-16.15-35.219-36-35.219-10.971 0-21.232 4.975-28 13.295-6.768-8.32-17.029-13.295-28-13.295-19.85 0-36 15.799-36 35.219v11.11l-30.383-19.748c-.527-.342-.639-.838-.658-1.102-.02-.256.016-.744.463-1.143 6.857-6.068 19.482-17.748 27.008-27.781 9.58-12.771 25.053-15.318 33.506-9.688 4.711 3.141 11.705 5.971 20.785 8.416 8.688 2.336 17.871 2.336 26.559 0 9.08-2.445 16.074-5.275 20.785-8.416 8.441-5.635 23.926-3.086 33.506 9.688 7.525 10.033 20.15 21.713 27.006 27.781.449.398.484.887.465 1.143-.021.264-.132.76-.657 1.102z"/><circle cx="184.477" cy="116" r="4"/><circle cx="168.477" cy="124" r="4"/><circle cx="192.477" cy="132" r="4"/><circle cx="120.477" cy="116" r="4"/><circle cx="136.477" cy="124" r="4"/><circle cx="112.477" cy="132" r="4"/></g></svg>